<svg width="32" height="27" viewBox="0 0 32 27" fill="none" xmlns="http://www.w3.org/2000/svg">
<path d="M8 20.3636H17.4545V23.2727H8C5.81818 23.2727 3.91273 22.5455 2.34182 20.9891C0.785454 19.4618 0 17.5855 0 15.3891C0 13.4982 0.567273 11.8109 1.70182 10.3273C2.83636 8.84364 4.36364 7.89818 6.18182 7.49091C6.79273 5.26545 8 3.46182 9.81818 2.08C11.6364 0.698182 13.7018 0 16 0C18.8364 0 21.2364 0.989091 23.2145 2.96727C24.8436 4.59636 25.7891 6.54545 26.08 8.72727C25.0618 8.72727 24.0873 9.00364 23.2 9.39636C23.057 7.74422 22.3299 6.19713 21.1491 5.03273C19.7236 3.63636 18.0073 2.90909 16 2.90909C13.9927 2.90909 12.2764 3.63636 10.8509 5.03273C9.45455 6.45818 8.72727 8.17455 8.72727 10.1818H8C6.58909 10.1818 5.39636 10.6764 4.40727 11.68C3.40364 12.6691 2.90909 13.8618 2.90909 15.2727C2.90909 16.6836 3.40364 17.8764 4.40727 18.9091C5.39636 19.8691 6.58909 20.3636 8 20.3636ZM32 19.3455V24.4364C32 25.3091 31.1273 26.1818 30.1091 26.1818H22.1091C21.2364 26.1818 20.3636 25.3091 20.3636 24.2909V19.2C20.3636 18.3273 21.2364 17.4545 22.1091 17.4545V15.2727C22.1091 13.2364 24.1455 11.6364 26.1818 11.6364C28.2182 11.6364 30.2545 13.2364 30.2545 15.2727V17.4545C31.1273 17.4545 32 18.3273 32 19.3455ZM28.3636 15.2727C28.3636 14.1091 27.3455 13.3818 26.1818 13.3818C25.0182 13.3818 24 14.1091 24 15.2727V17.4545H28.3636V15.2727Z" fill="#135D54"/>
</svg>
