<svg width="178" height="118" viewBox="0 0 178 118" fill="none" xmlns="http://www.w3.org/2000/svg">
<g opacity="0.3">
<path d="M176.035 61.8838H153.358V82.6888H176.035V61.8838Z" stroke="black" stroke-width="0.0445414" stroke-linecap="round" stroke-linejoin="round"/>
<path d="M157.067 70.3584H154.955V72.4708H157.067V70.3584Z" stroke="black" stroke-width="0.0445414" stroke-linecap="round" stroke-linejoin="round"/>
<path d="M159.962 70.3584H157.849V72.4708H159.962V70.3584Z" stroke="black" stroke-width="0.0445414" stroke-linecap="round" stroke-linejoin="round"/>
<path d="M162.859 70.3584H160.746V72.4708H162.859V70.3584Z" stroke="black" stroke-width="0.0445414" stroke-linecap="round" stroke-linejoin="round"/>
<path d="M165.752 70.3584H163.64V72.4708H165.752V70.3584Z" stroke="black" stroke-width="0.0445414" stroke-linecap="round" stroke-linejoin="round"/>
<path d="M168.647 70.3584H166.534V72.4708H168.647V70.3584Z" stroke="black" stroke-width="0.0445414" stroke-linecap="round" stroke-linejoin="round"/>
<path d="M171.544 70.3584H169.431V72.4708H171.544V70.3584Z" stroke="black" stroke-width="0.0445414" stroke-linecap="round" stroke-linejoin="round"/>
<path d="M174.438 70.3584H172.325V72.4708H174.438V70.3584Z" stroke="black" stroke-width="0.0445414" stroke-linecap="round" stroke-linejoin="round"/>
<path d="M157.067 73.875H154.955V75.9874H157.067V73.875Z" stroke="black" stroke-width="0.0445414" stroke-linecap="round" stroke-linejoin="round"/>
<path d="M159.962 73.875H157.849V75.9874H159.962V73.875Z" stroke="black" stroke-width="0.0445414" stroke-linecap="round" stroke-linejoin="round"/>
<path d="M162.859 73.875H160.746V75.9874H162.859V73.875Z" stroke="black" stroke-width="0.0445414" stroke-linecap="round" stroke-linejoin="round"/>
<path d="M165.752 73.875H163.64V75.9874H165.752V73.875Z" stroke="black" stroke-width="0.0445414" stroke-linecap="round" stroke-linejoin="round"/>
<path d="M168.647 73.875H166.534V75.9874H168.647V73.875Z" stroke="black" stroke-width="0.0445414" stroke-linecap="round" stroke-linejoin="round"/>
<path d="M171.544 73.875H169.431V75.9874H171.544V73.875Z" stroke="black" stroke-width="0.0445414" stroke-linecap="round" stroke-linejoin="round"/>
<path d="M174.438 73.875H172.325V75.9874H174.438V73.875Z" stroke="black" stroke-width="0.0445414" stroke-linecap="round" stroke-linejoin="round"/>
<path d="M157.067 77.3882H154.955V79.5006H157.067V77.3882Z" stroke="black" stroke-width="0.0445414" stroke-linecap="round" stroke-linejoin="round"/>
<path d="M159.962 77.3882H157.849V79.5006H159.962V77.3882Z" stroke="black" stroke-width="0.0445414" stroke-linecap="round" stroke-linejoin="round"/>
<path d="M162.859 77.3882H160.746V79.5006H162.859V77.3882Z" stroke="black" stroke-width="0.0445414" stroke-linecap="round" stroke-linejoin="round"/>
<path d="M165.752 77.3882H163.64V79.5006H165.752V77.3882Z" stroke="black" stroke-width="0.0445414" stroke-linecap="round" stroke-linejoin="round"/>
<path d="M168.647 77.3882H166.534V79.5006H168.647V77.3882Z" stroke="black" stroke-width="0.0445414" stroke-linecap="round" stroke-linejoin="round"/>
<path d="M171.544 77.3882H169.431V79.5006H171.544V77.3882Z" stroke="black" stroke-width="0.0445414" stroke-linecap="round" stroke-linejoin="round"/>
<path d="M174.438 77.3882H172.325V79.5006H174.438V77.3882Z" stroke="black" stroke-width="0.0445414" stroke-linecap="round" stroke-linejoin="round"/>
<path d="M158.628 59.2783H157.244V62.898H158.628V59.2783Z" fill="black"/>
<path d="M165.388 59.2783H164.004V62.898H165.388V59.2783Z" fill="black"/>
<path d="M172.149 59.2783H170.765V62.898H172.149V59.2783Z" fill="black"/>
<path d="M174.592 65.3462H155.216V68.8595H174.592V65.3462Z" stroke="black" stroke-width="0.0445414" stroke-linecap="round" stroke-linejoin="round"/>
</g>
<g opacity="0.3">
<path d="M150.855 27.931C155.383 23.4025 155.383 16.0604 150.855 11.5318C146.326 7.00332 138.984 7.00332 134.456 11.5318C129.927 16.0604 129.927 23.4025 134.456 27.931C138.984 32.4596 146.326 32.4596 150.855 27.931Z" stroke="black" stroke-width="0.0445414" stroke-linecap="round" stroke-linejoin="round"/>
<path d="M149.611 26.6869C153.452 22.8455 153.452 16.6174 149.611 12.776C145.77 8.93454 139.541 8.93453 135.7 12.776C131.859 16.6174 131.859 22.8455 135.7 26.6869C139.541 30.5284 145.77 30.5284 149.611 26.6869Z" stroke="black" stroke-width="0.0445414" stroke-linecap="round" stroke-linejoin="round"/>
<path d="M143.603 19.7335C143.603 19.9214 143.547 20.1052 143.443 20.2614C143.338 20.4176 143.19 20.5394 143.016 20.6112C142.842 20.683 142.651 20.7016 142.467 20.6647C142.282 20.6279 142.113 20.5371 141.981 20.404C141.848 20.2709 141.758 20.1014 141.721 19.917C141.685 19.7326 141.704 19.5415 141.776 19.3681C141.849 19.1946 141.971 19.0464 142.127 18.9424C142.284 18.8384 142.468 18.7831 142.656 18.7837C142.78 18.7837 142.904 18.8083 143.019 18.856C143.134 18.9038 143.239 18.9738 143.326 19.062C143.414 19.1503 143.484 19.255 143.532 19.3702C143.579 19.4854 143.603 19.6089 143.603 19.7335Z" stroke="black" stroke-width="0.0445414" stroke-linecap="round" stroke-linejoin="round"/>
<path d="M141.941 20.4756L138.963 23.0503" stroke="black" stroke-width="0.0445414" stroke-linecap="round" stroke-linejoin="round"/>
<path d="M143.603 19.7334H151.274" stroke="black" stroke-width="0.0445414" stroke-linecap="round" stroke-linejoin="round"/>
</g>
<g opacity="0.3">
<path d="M56.0434 95.8873H24.1047V3.27344H56.0434V95.8873ZM89.2792 3.27344H57.3405V95.8873H89.2792V3.27344ZM122.518 3.27344H90.5792V95.8873H122.518V3.27344Z" stroke="black" stroke-width="0.0445414" stroke-linecap="round" stroke-linejoin="round"/>
<path d="M24.0934 28.0035C25.2141 28.2837 27.9625 26.8212 33.5238 13.8468C35.0751 10.1326 37.0073 6.58915 39.2895 3.27344" stroke="black" stroke-width="0.0445414" stroke-linecap="round" stroke-linejoin="round"/>
<path d="M90.5679 55.5967C92.4534 57.9837 94.5126 60.847 96.7707 64.3574C103.118 74.1996 108.223 84.7901 111.967 95.8871" stroke="black" stroke-width="0.0445414" stroke-linecap="round" stroke-linejoin="round"/>
<path d="M70.5053 3.27344C69.1241 8.78707 68.3901 16.5 70.4185 26.1348C74.0354 43.3285 78.8486 41.429 89.2819 53.9999" stroke="black" stroke-width="0.0445414" stroke-linecap="round" stroke-linejoin="round"/>
<path d="M24.0906 64.0099C26.0517 60.9281 28.0409 56.7257 29.7891 50.9599C36.3758 29.2192 52.2022 20.2147 52.2022 40.4201C52.2022 60.6255 42.3601 71.2606 42.0995 85.2183C41.992 88.8467 42.5562 92.4637 43.7637 95.887" stroke="black" stroke-width="0.0445414" stroke-linecap="round" stroke-linejoin="round"/>
<path d="M75.8706 95.887C72.5871 80.9599 71.8026 65.139 76.1283 63.6962C80.6474 62.1917 85.0628 82.7977 87.3909 95.887" stroke="black" stroke-width="0.0445414" stroke-linecap="round" stroke-linejoin="round"/>
<path d="M106.652 3.27344C99.4743 18.0885 87.6234 44.8246 95.2326 45.4605C101.295 45.9648 113.317 32.2928 122.518 20.4811" stroke="black" stroke-width="0.0445414" stroke-linecap="round" stroke-linejoin="round"/>
<path d="M86.7047 16.7097C87.5594 13.0482 85.2841 9.38709 81.6226 8.53234C77.9611 7.67758 74.2999 9.9529 73.4452 13.6144C72.5904 17.2759 74.8658 20.9371 78.5273 21.7918C82.1888 22.6466 85.8499 20.3712 86.7047 16.7097Z" stroke="black" stroke-width="0.0445414" stroke-linecap="round" stroke-linejoin="round"/>
<path d="M110.824 28.9977C110.824 29.302 110.734 29.5997 110.566 29.853C110.397 30.1063 110.157 30.3039 109.876 30.4207C109.595 30.5376 109.286 30.5684 108.987 30.5094C108.689 30.4504 108.414 30.3041 108.199 30.0891C107.983 29.8741 107.837 29.6 107.777 29.3016C107.718 29.0032 107.748 28.6938 107.864 28.4125C107.981 28.1313 108.178 27.8909 108.431 27.7218C108.684 27.5527 108.981 27.4624 109.285 27.4624C109.693 27.4624 110.084 27.6241 110.372 27.9119C110.66 28.1998 110.823 28.5903 110.824 28.9977Z" stroke="black" stroke-width="0.0445414" stroke-linecap="round" stroke-linejoin="round"/>
<path d="M34.7313 69.8435C36.1254 69.8435 37.2555 68.7133 37.2555 67.3192C37.2555 65.9251 36.1254 64.7949 34.7313 64.7949C33.3371 64.7949 32.207 65.9251 32.207 67.3192C32.207 68.7133 33.3371 69.8435 34.7313 69.8435Z" stroke="black" stroke-width="0.0445414" stroke-linecap="round" stroke-linejoin="round"/>
<path d="M42.6374 12.9695C43.5472 12.9695 44.2848 12.232 44.2848 11.3222C44.2848 10.4124 43.5472 9.6748 42.6374 9.6748C41.7276 9.6748 40.9901 10.4124 40.9901 11.3222C40.9901 12.232 41.7276 12.9695 42.6374 12.9695Z" stroke="black" stroke-width="0.0445414" stroke-linecap="round" stroke-linejoin="round"/>
<path d="M65.944 51.1919C67.2878 50.6314 67.9228 49.0877 67.3624 47.7439C66.8019 46.4 65.2581 45.765 63.9143 46.3255C62.5705 46.886 61.9355 48.4297 62.496 49.7735C63.0564 51.1173 64.6002 51.7524 65.944 51.1919Z" stroke="black" stroke-width="0.0445414" stroke-linecap="round" stroke-linejoin="round"/>
<path d="M110.496 72.0426C113.832 72.0426 116.536 69.3382 116.536 66.0022C116.536 62.6663 113.832 59.9619 110.496 59.9619C107.16 59.9619 104.456 62.6663 104.456 66.0022C104.456 69.3382 107.16 72.0426 110.496 72.0426Z" stroke="black" stroke-width="0.0445414" stroke-linecap="round" stroke-linejoin="round"/>
</g>
<path d="M134.453 39.0308H149.284C149.713 39.03 150.138 39.1138 150.534 39.2774C150.93 39.4409 151.291 39.681 151.594 39.9839C151.897 40.2868 152.138 40.6466 152.302 41.0426C152.467 41.4386 152.551 41.8631 152.551 42.2919V53.5461C152.551 54.411 152.208 55.2404 151.596 55.852C150.984 56.4636 150.155 56.8072 149.29 56.8072H137.027L131.424 61.7044L134.116 56.7848C133.314 56.7022 132.571 56.3251 132.031 55.7264C131.49 55.1276 131.191 54.3497 131.191 53.5433V42.2919C131.191 41.427 131.535 40.5975 132.147 39.9859C132.758 39.3743 133.588 39.0308 134.453 39.0308Z" fill="#F0F3F3" stroke="#135D54" stroke-width="0.0445414" stroke-linecap="round" stroke-linejoin="round"/>
<path d="M140.014 50.9015V48.7106C140.529 48.3007 141.005 47.8429 141.434 47.3434C141.844 46.8737 142.182 46.3459 142.437 45.7773C142.681 45.225 142.807 44.6274 142.804 44.0235C142.826 43.6681 142.727 43.3158 142.524 43.0233C142.427 42.9088 142.305 42.819 142.166 42.761C142.028 42.7031 141.878 42.6787 141.728 42.6899C141.593 42.684 141.459 42.7058 141.332 42.7539C141.206 42.8021 141.091 42.8757 140.994 42.97C140.9 43.0676 140.827 43.1831 140.779 43.3098C140.731 43.4364 140.709 43.5715 140.714 43.7069C140.716 43.8662 140.74 44.0246 140.784 44.1776C140.826 44.3148 140.868 44.4577 140.913 44.623L138.571 45.1525C138.492 44.9083 138.428 44.6594 138.38 44.4073C138.336 44.1624 138.313 43.9139 138.313 43.6649C138.29 43.234 138.358 42.8031 138.513 42.4004C138.668 41.9977 138.906 41.6323 139.213 41.3283C139.81 40.768 140.668 40.4878 141.787 40.4878C142.906 40.4878 143.784 40.7904 144.421 41.3955C145.037 41.9969 145.345 42.858 145.345 43.9786C145.35 44.6564 145.228 45.329 144.987 45.9622C144.738 46.5936 144.388 47.1802 143.95 47.6992C143.473 48.266 142.937 48.7797 142.35 49.2317V50.9127L140.014 50.9015ZM139.93 54.5128V52.0221H142.451V54.5044L139.93 54.5128Z" fill="#135D54"/>
<path d="M62.8148 17.2646H42.6738C41.8089 17.2646 40.9795 17.6082 40.3679 18.2198C39.7563 18.8314 39.4127 19.6609 39.4127 20.5258V31.7799C39.4127 32.6448 39.7563 33.4743 40.3679 34.0859C40.9795 34.6975 41.8089 35.0411 42.6738 35.0411H60.2429L65.8462 39.9383L63.1482 35.0242C63.9505 34.9405 64.6933 34.5626 65.2334 33.9635C65.7735 33.3644 66.0726 32.5866 66.0731 31.7799V20.5258C66.0731 19.6613 65.7299 18.8323 65.119 18.2208C64.508 17.6093 63.6792 17.2654 62.8148 17.2646Z" fill="#F0F3F3" stroke="#135D54" stroke-width="0.0445414" stroke-linecap="round" stroke-linejoin="round"/>
<path d="M48.7534 26.527C48.7534 26.2759 48.679 26.0306 48.5395 25.8219C48.4001 25.6131 48.2019 25.4505 47.97 25.3544C47.7381 25.2584 47.4829 25.2332 47.2367 25.2822C46.9905 25.3312 46.7644 25.452 46.5869 25.6295C46.4094 25.807 46.2885 26.0332 46.2395 26.2794C46.1906 26.5256 46.2157 26.7807 46.3118 27.0126C46.4078 27.2445 46.5705 27.4428 46.7792 27.5822C46.9879 27.7217 47.2333 27.7961 47.4843 27.7961C47.8209 27.7961 48.1437 27.6624 48.3817 27.4244C48.6197 27.1864 48.7534 26.8636 48.7534 26.527Z" fill="#135D54" stroke="#135D54" stroke-width="0.0445414" stroke-linecap="round" stroke-linejoin="round"/>
<path d="M54.0149 26.527C54.0149 26.2759 53.9405 26.0306 53.801 25.8219C53.6616 25.6131 53.4634 25.4505 53.2314 25.3544C52.9995 25.2584 52.7444 25.2332 52.4982 25.2822C52.252 25.3312 52.0258 25.452 51.8483 25.6295C51.6709 25.807 51.55 26.0332 51.501 26.2794C51.452 26.5256 51.4772 26.7807 51.5732 27.0126C51.6693 27.2445 51.832 27.4428 52.0407 27.5822C52.2494 27.7217 52.4948 27.7961 52.7458 27.7961C53.0824 27.7961 53.4052 27.6624 53.6432 27.4244C53.8812 27.1864 54.0149 26.8636 54.0149 26.527Z" fill="#135D54" stroke="#135D54" stroke-width="0.0445414" stroke-linecap="round" stroke-linejoin="round"/>
<path d="M59.2736 26.527C59.2736 26.2759 59.1991 26.0306 59.0597 25.8219C58.9202 25.6131 58.722 25.4505 58.4901 25.3544C58.2582 25.2584 58.003 25.2332 57.7568 25.2822C57.5106 25.3312 57.2845 25.452 57.107 25.6295C56.9295 25.807 56.8086 26.0332 56.7597 26.2794C56.7107 26.5256 56.7358 26.7807 56.8319 27.0126C56.928 27.2445 57.0906 27.4428 57.2993 27.5822C57.508 27.7217 57.7534 27.7961 58.0044 27.7961C58.341 27.7961 58.6638 27.6624 58.9019 27.4244C59.1399 27.1864 59.2736 26.8636 59.2736 26.527Z" fill="#135D54" stroke="#135D54" stroke-width="0.0445414" stroke-linecap="round" stroke-linejoin="round"/>
<path d="M7.08167 62.4604L11.6287 106.026" stroke="#135D54" stroke-width="0.0445414" stroke-linecap="round" stroke-linejoin="round"/>
<path d="M11.5363 105.222L9.22211 102.788" stroke="#135D54" stroke-width="0.0445414" stroke-linecap="round" stroke-linejoin="round"/>
<path d="M9.98417 103.572C9.97941 103.166 9.88768 102.766 9.71515 102.398C9.54263 102.03 9.29331 101.704 8.98398 101.44C8.3396 100.863 4.94121 99.4345 4.61903 100.631C4.26882 101.942 7.74566 104.5 9.98417 103.572Z" fill="#00C796" stroke="#135D54" stroke-width="0.0445414" stroke-linecap="round" stroke-linejoin="round"/>
<path d="M9.98419 103.583L6.7511 101.569" stroke="#135D54" stroke-width="0.0445414" stroke-linecap="round" stroke-linejoin="round"/>
<path d="M9.96455 90.0906L7.68121 88.0342" stroke="#135D54" stroke-width="0.0445414" stroke-linecap="round" stroke-linejoin="round"/>
<path d="M8.44626 88.8326C8.44083 88.4259 8.34853 88.025 8.17555 87.6568C8.00257 87.2886 7.7529 86.9616 7.44327 86.6978C6.79889 86.1206 3.4005 84.6918 3.07832 85.8881C2.72811 87.1909 6.20494 89.746 8.44626 88.8326Z" fill="#00C796" stroke="#135D54" stroke-width="0.0445414" stroke-linecap="round" stroke-linejoin="round"/>
<path d="M8.4461 88.8331L5.21021 86.8159" stroke="#135D54" stroke-width="0.0445414" stroke-linecap="round" stroke-linejoin="round"/>
<path d="M10.6006 96.5208L8.31165 94.0806" stroke="#135D54" stroke-width="0.0445414" stroke-linecap="round" stroke-linejoin="round"/>
<path d="M9.07645 94.887C9.07169 94.4808 8.97996 94.0803 8.80744 93.7125C8.63491 93.3448 8.38559 93.0182 8.07626 92.7549C7.42908 92.1778 4.0335 90.7489 3.71131 91.9452C3.3583 93.2368 6.83794 95.7919 9.07645 94.887Z" fill="#00C796" stroke="#135D54" stroke-width="0.0445414" stroke-linecap="round" stroke-linejoin="round"/>
<path d="M9.07653 94.8757L5.84064 92.8613" stroke="#135D54" stroke-width="0.0445414" stroke-linecap="round" stroke-linejoin="round"/>
<path d="M8.94756 80.5514L6.65582 78.2148" stroke="#135D54" stroke-width="0.0445414" stroke-linecap="round" stroke-linejoin="round"/>
<path d="M7.42635 79.0105C7.4216 78.6043 7.32986 78.2038 7.15734 77.8361C6.98481 77.4683 6.73549 77.1418 6.42617 76.8784C5.77899 76.3013 2.3834 74.8725 2.05841 76.0688C1.7026 77.3715 5.18504 79.9266 7.42635 79.0105Z" fill="#00C796" stroke="#135D54" stroke-width="0.0445414" stroke-linecap="round" stroke-linejoin="round"/>
<path d="M7.42071 79.01L4.18481 76.9956" stroke="#135D54" stroke-width="0.0445414" stroke-linecap="round" stroke-linejoin="round"/>
<path d="M7.84372 70.048L5.62762 68.353" stroke="#135D54" stroke-width="0.0445414" stroke-linecap="round" stroke-linejoin="round"/>
<path d="M6.38969 69.1481C6.38515 68.7414 6.29353 68.3405 6.121 67.9722C5.94847 67.604 5.69904 67.277 5.3895 67.0132C4.74512 66.4361 1.34673 65.0072 1.02454 66.2035C0.674339 67.5063 4.15118 70.0614 6.38969 69.1481Z" fill="#00C796" stroke="#135D54" stroke-width="0.0445414" stroke-linecap="round" stroke-linejoin="round"/>
<path d="M6.38971 69.1485L3.15662 67.1313" stroke="#135D54" stroke-width="0.0445414" stroke-linecap="round" stroke-linejoin="round"/>
<path d="M11.3123 101.866L13.2258 98.7476" stroke="#135D54" stroke-width="0.0445414" stroke-linecap="round" stroke-linejoin="round"/>
<path d="M12.643 99.6863C12.5636 99.2876 12.5705 98.8765 12.6633 98.4807C12.7561 98.0849 12.9326 97.7136 13.1809 97.3917C13.6936 96.6941 16.7222 94.5901 17.2853 95.7107C17.8961 96.8986 15.0216 100.118 12.643 99.6863Z" fill="#00C796" stroke="#135D54" stroke-width="0.0445414" stroke-linecap="round" stroke-linejoin="round"/>
<path d="M12.6431 99.6866L14.918 97.5518" stroke="#135D54" stroke-width="0.0445414" stroke-linecap="round" stroke-linejoin="round"/>
<path d="M9.6535 85.9581L11.5642 82.8398" stroke="#135D54" stroke-width="0.0445414" stroke-linecap="round" stroke-linejoin="round"/>
<path d="M10.9817 83.7759C10.9023 83.3772 10.9092 82.9662 11.002 82.5704C11.0948 82.1746 11.2713 81.8032 11.5196 81.4814C12.0323 80.7866 14.4025 79.0383 14.9656 80.1422C15.5764 81.3441 13.3631 84.2102 10.9817 83.7759Z" fill="#00C796" stroke="#135D54" stroke-width="0.0445414" stroke-linecap="round" stroke-linejoin="round"/>
<path d="M10.9817 83.7757L13.8954 80.9937" stroke="#135D54" stroke-width="0.0445414" stroke-linecap="round" stroke-linejoin="round"/>
<path d="M8.92242 78.9678L10.8359 75.8496" stroke="#135D54" stroke-width="0.0445414" stroke-linecap="round" stroke-linejoin="round"/>
<path d="M10.2533 76.7854C10.1735 76.3869 10.18 75.9759 10.2723 75.5802C10.3646 75.1844 10.5405 74.8129 10.7884 74.4909C11.3011 73.7932 14.3296 71.6892 14.8928 72.8099C15.5063 73.9978 12.6318 77.2168 10.2533 76.7854Z" fill="#00C796" stroke="#135D54" stroke-width="0.0445414" stroke-linecap="round" stroke-linejoin="round"/>
<path d="M10.2532 76.7853L13.1641 74.0005" stroke="#135D54" stroke-width="0.0445414" stroke-linecap="round" stroke-linejoin="round"/>
<path d="M7.85223 68.7169L9.76575 65.5986" stroke="#135D54" stroke-width="0.0445414" stroke-linecap="round" stroke-linejoin="round"/>
<path d="M9.18286 66.5343C9.10352 66.1361 9.11049 65.7254 9.20328 65.3301C9.29607 64.9348 9.47253 64.5639 9.72078 64.2426C10.2335 63.545 13.2621 61.4409 13.8252 62.5476C14.4303 63.7495 11.5615 66.9686 9.18286 66.5343Z" fill="#00C796" stroke="#135D54" stroke-width="0.0445414" stroke-linecap="round" stroke-linejoin="round"/>
<path d="M9.1828 66.5345L12.0937 63.7524" stroke="#135D54" stroke-width="0.0445414" stroke-linecap="round" stroke-linejoin="round"/>
<path d="M7.03694 62.1637C6.95713 61.7646 6.96386 61.353 7.05665 60.9567C7.14944 60.5603 7.32615 60.1885 7.57485 59.8663C8.08755 59.1687 11.1161 57.0647 11.6793 58.1854C12.29 59.3789 9.41553 62.5979 7.03694 62.1637Z" fill="#00C796" stroke="#135D54" stroke-width="0.0445414" stroke-linecap="round" stroke-linejoin="round"/>
<path d="M7.03699 62.1639L9.94789 59.3818" stroke="#135D54" stroke-width="0.0445414" stroke-linecap="round" stroke-linejoin="round"/>
<path d="M7.20503 62.284C6.8003 62.3213 6.39229 62.2713 6.00853 62.1374C5.62478 62.0036 5.27422 61.7889 4.98052 61.5079C4.33895 60.9252 2.56831 57.6921 3.72539 57.2494C4.98333 56.7648 7.88302 59.9614 7.20503 62.284Z" fill="#00C796" stroke="#135D54" stroke-width="0.0445414" stroke-linecap="round" stroke-linejoin="round"/>
<path d="M7.20501 62.2845L4.74237 59.0962" stroke="#135D54" stroke-width="0.0445414" stroke-linecap="round" stroke-linejoin="round"/>
<path d="M15.3914 48.1333V106.141" stroke="#135D54" stroke-width="0.0445414" stroke-linecap="round" stroke-linejoin="round"/>
<path d="M21.7147 69.7817L17.9128 105.959" stroke="#135D54" stroke-width="0.0445414" stroke-linecap="round" stroke-linejoin="round"/>
<path d="M18.9214 96.9014L17.0275 95.3213" stroke="#135D54" stroke-width="0.0445414" stroke-linecap="round" stroke-linejoin="round"/>
<path d="M17.6187 95.8672C17.6972 95.4682 17.6895 95.0572 17.5963 94.6615C17.503 94.2658 17.3263 93.8945 17.078 93.5726C16.5653 92.8778 13.5339 90.771 12.9736 91.8916C12.3629 93.0851 15.2373 96.3014 17.6187 95.8672Z" fill="#00C796" stroke="#135D54" stroke-width="0.0445414" stroke-linecap="round" stroke-linejoin="round"/>
<path d="M17.6187 95.8677L14.8675 93.2285" stroke="#135D54" stroke-width="0.0445414" stroke-linecap="round" stroke-linejoin="round"/>
<path d="M18.2154 103.584L16.4055 100.978" stroke="#135D54" stroke-width="0.0445414" stroke-linecap="round" stroke-linejoin="round"/>
<path d="M16.9912 101.914C17.0696 101.515 17.062 101.104 16.9687 100.708C16.8755 100.312 16.6988 99.9409 16.4505 99.619C15.9378 98.9242 12.9064 96.8174 12.3461 97.938C11.7353 99.1315 14.6098 102.348 16.9912 101.914Z" fill="#00C796" stroke="#135D54" stroke-width="0.0445414" stroke-linecap="round" stroke-linejoin="round"/>
<path d="M16.9911 101.914L14.2399 99.2749" stroke="#135D54" stroke-width="0.0445414" stroke-linecap="round" stroke-linejoin="round"/>
<path d="M19.8796 87.2162L18.0529 85.1094" stroke="#135D54" stroke-width="0.0445414" stroke-linecap="round" stroke-linejoin="round"/>
<path d="M18.6329 86.0481C18.7113 85.6492 18.7037 85.2381 18.6104 84.8424C18.5172 84.4467 18.3405 84.0755 18.0922 83.7535C17.5795 83.0559 14.5481 80.9519 13.985 82.0726C13.3798 83.2633 16.2571 86.4823 18.6329 86.0481Z" fill="#00C796" stroke="#135D54" stroke-width="0.0445414" stroke-linecap="round" stroke-linejoin="round"/>
<path d="M18.6385 86.0478L15.8873 83.4087" stroke="#135D54" stroke-width="0.0445414" stroke-linecap="round" stroke-linejoin="round"/>
<path d="M20.8405 77.9848L19.0782 75.2476" stroke="#135D54" stroke-width="0.0445414" stroke-linecap="round" stroke-linejoin="round"/>
<path d="M19.661 76.1833C19.7395 75.7844 19.7318 75.3734 19.6386 74.9777C19.5453 74.5819 19.3686 74.2107 19.1203 73.8888C18.6076 73.1912 15.5762 71.0872 15.0159 72.2078C14.4052 73.3985 17.2796 76.6176 19.661 76.1833Z" fill="#00C796" stroke="#135D54" stroke-width="0.0445414" stroke-linecap="round" stroke-linejoin="round"/>
<path d="M19.6612 76.1831L16.91 73.5439" stroke="#135D54" stroke-width="0.0445414" stroke-linecap="round" stroke-linejoin="round"/>
<path d="M19.3921 93.3039L21.9052 90.6479" stroke="#135D54" stroke-width="0.0445414" stroke-linecap="round" stroke-linejoin="round"/>
<path d="M21.1544 91.4433C21.1589 91.0366 21.2505 90.6357 21.423 90.2675C21.5956 89.8992 21.845 89.5722 22.1545 89.3084C22.7989 88.7313 26.1973 87.2997 26.5195 88.496C26.8557 89.7987 23.3957 92.365 21.1544 91.4433Z" fill="#00C796" stroke="#135D54" stroke-width="0.0445414" stroke-linecap="round" stroke-linejoin="round"/>
<path d="M21.1403 91.444L24.5639 89.3203" stroke="#135D54" stroke-width="0.0445414" stroke-linecap="round" stroke-linejoin="round"/>
<path d="M20.1177 86.314L22.6308 83.6553" stroke="#135D54" stroke-width="0.0445414" stroke-linecap="round" stroke-linejoin="round"/>
<path d="M21.8661 84.4512C21.8708 84.045 21.9626 83.6446 22.1351 83.2768C22.3076 82.909 22.557 82.5825 22.8663 82.3192C23.5107 81.7421 26.909 80.3104 27.2312 81.5067C27.5814 82.8067 24.1074 85.3618 21.8661 84.4512Z" fill="#00C796" stroke="#135D54" stroke-width="0.0445414" stroke-linecap="round" stroke-linejoin="round"/>
<path d="M21.8661 84.4508L25.2897 82.3271" stroke="#135D54" stroke-width="0.0445414" stroke-linecap="round" stroke-linejoin="round"/>
<path d="M21.1517 75.5387L23.6928 73.4038" stroke="#135D54" stroke-width="0.0445414" stroke-linecap="round" stroke-linejoin="round"/>
<path d="M22.9306 74.2026C22.9351 73.7959 23.0268 73.395 23.1993 73.0267C23.3718 72.6585 23.6213 72.3315 23.9308 72.0677C24.5752 71.4906 27.9708 70.0589 28.2957 71.2552C28.646 72.558 25.1691 75.1159 22.9306 74.2026Z" fill="#00C796" stroke="#135D54" stroke-width="0.0445414" stroke-linecap="round" stroke-linejoin="round"/>
<path d="M22.9306 74.2021L26.3542 72.0757" stroke="#135D54" stroke-width="0.0445414" stroke-linecap="round" stroke-linejoin="round"/>
<path d="M21.7287 69.4816C21.7334 69.0749 21.8251 68.6741 21.9976 68.3058C22.1702 67.9376 22.4195 67.6106 22.7289 67.3467C23.3733 66.7696 26.7716 65.3407 27.0938 66.537C27.444 67.837 23.97 70.3949 21.7287 69.4816Z" fill="#00C796" stroke="#135D54" stroke-width="0.0445414" stroke-linecap="round" stroke-linejoin="round"/>
<path d="M21.7287 69.482L25.1523 67.3584" stroke="#135D54" stroke-width="0.0445414" stroke-linecap="round" stroke-linejoin="round"/>
<path d="M21.8687 69.6333C21.4653 69.586 21.0766 69.453 20.7287 69.2433C20.3808 69.0336 20.0818 68.752 19.8515 68.4174C19.3472 67.7142 18.2798 64.1869 19.5041 63.9908C20.8349 63.7891 23.0118 67.5013 21.8687 69.6333Z" fill="#00C796" stroke="#135D54" stroke-width="0.0445414" stroke-linecap="round" stroke-linejoin="round"/>
<path d="M21.8689 69.6326L20.1151 66.0073" stroke="#135D54" stroke-width="0.0445414" stroke-linecap="round" stroke-linejoin="round"/>
<path d="M15.3017 105.127L13.2201 102.348" stroke="#135D54" stroke-width="0.0445414" stroke-linecap="round" stroke-linejoin="round"/>
<path d="M13.898 103.219C13.9354 102.814 13.8857 102.406 13.7523 102.022C13.619 101.638 13.405 101.287 13.1248 100.992C12.5421 100.353 9.31176 98.5771 8.8663 99.7342C8.38162 100.992 11.5755 103.897 13.898 103.219Z" fill="#00C796" stroke="#135D54" stroke-width="0.0445414" stroke-linecap="round" stroke-linejoin="round"/>
<path d="M13.8981 103.219L10.8892 100.877" stroke="#135D54" stroke-width="0.0445414" stroke-linecap="round" stroke-linejoin="round"/>
<path d="M15.3746 91.7185L13.2201 89.7153" stroke="#135D54" stroke-width="0.0445414" stroke-linecap="round" stroke-linejoin="round"/>
<path d="M13.898 90.5837C13.9352 90.1792 13.8854 89.7714 13.752 89.3878C13.6186 89.0041 13.4048 88.6534 13.1248 88.3592C12.5421 87.7176 9.31176 85.9441 8.8663 87.1012C8.38162 88.3592 11.5755 91.2617 13.898 90.5837Z" fill="#00C796" stroke="#135D54" stroke-width="0.0445414" stroke-linecap="round" stroke-linejoin="round"/>
<path d="M13.8981 90.584L10.8892 88.2446" stroke="#135D54" stroke-width="0.0445414" stroke-linecap="round" stroke-linejoin="round"/>
<path d="M15.4474 77.7857L13.2201 74.8804" stroke="#135D54" stroke-width="0.0445414" stroke-linecap="round" stroke-linejoin="round"/>
<path d="M13.898 75.7516C13.9352 75.3471 13.8854 74.9394 13.752 74.5557C13.6186 74.1721 13.4048 73.8214 13.1248 73.5271C12.5421 72.8856 9.31176 71.1121 8.8663 72.2692C8.38162 73.5271 11.5755 76.4296 13.898 75.7516Z" fill="#00C796" stroke="#135D54" stroke-width="0.0445414" stroke-linecap="round" stroke-linejoin="round"/>
<path d="M13.8981 75.7525L10.8892 73.4131" stroke="#135D54" stroke-width="0.0445414" stroke-linecap="round" stroke-linejoin="round"/>
<path d="M15.3017 66.8821L13.2201 65.0078" stroke="#135D54" stroke-width="0.0445414" stroke-linecap="round" stroke-linejoin="round"/>
<path d="M13.898 65.8791C13.9353 65.4746 13.8856 65.0668 13.7523 64.6831C13.6189 64.2994 13.4049 63.9487 13.1248 63.6546C12.5421 63.013 9.31176 61.2395 8.8663 62.3966C8.38162 63.6546 11.5755 66.5571 13.898 65.8791Z" fill="#00C796" stroke="#135D54" stroke-width="0.0445414" stroke-linecap="round" stroke-linejoin="round"/>
<path d="M13.8981 65.8789L10.8892 63.5396" stroke="#135D54" stroke-width="0.0445414" stroke-linecap="round" stroke-linejoin="round"/>
<path d="M15.4221 57.003L13.2621 55.4229" stroke="#135D54" stroke-width="0.0445414" stroke-linecap="round" stroke-linejoin="round"/>
<path d="M13.898 55.9606C13.9352 55.5561 13.8854 55.1484 13.752 54.7647C13.6186 54.3811 13.4048 54.0304 13.1248 53.7361C12.5421 53.0945 9.31176 51.3211 8.8663 52.4782C8.38162 53.7361 11.5755 56.6386 13.898 55.9606Z" fill="#00C796" stroke="#135D54" stroke-width="0.0445414" stroke-linecap="round" stroke-linejoin="round"/>
<path d="M13.8981 55.9614L10.8892 53.6221" stroke="#135D54" stroke-width="0.0445414" stroke-linecap="round" stroke-linejoin="round"/>
<path d="M15.397 89.0148L17.6215 86.1123" stroke="#135D54" stroke-width="0.0445414" stroke-linecap="round" stroke-linejoin="round"/>
<path d="M16.9518 86.9833C16.9145 86.5789 16.9642 86.1711 17.0976 85.7874C17.2309 85.4037 17.4449 85.053 17.725 84.7588C18.3078 84.1173 21.5381 82.3438 21.9835 83.4981C22.4598 84.7588 19.2687 87.6613 16.9518 86.9833Z" fill="#00C796" stroke="#135D54" stroke-width="0.0445414" stroke-linecap="round" stroke-linejoin="round"/>
<path d="M16.9462 86.984L20.1317 84.5186" stroke="#135D54" stroke-width="0.0445414" stroke-linecap="round" stroke-linejoin="round"/>
<path d="M15.397 79.0996L17.6215 76.1943" stroke="#135D54" stroke-width="0.0445414" stroke-linecap="round" stroke-linejoin="round"/>
<path d="M16.9518 77.0661C16.9147 76.6616 16.9645 76.2539 17.0978 75.8702C17.2312 75.4865 17.4451 75.1358 17.7251 74.8416C18.3078 74.2 21.5381 72.4266 21.9835 73.5836C22.4598 74.8416 19.2688 77.7441 16.9518 77.0661Z" fill="#00C796" stroke="#135D54" stroke-width="0.0445414" stroke-linecap="round" stroke-linejoin="round"/>
<path d="M16.9462 77.0655L20.1317 74.6001" stroke="#135D54" stroke-width="0.0445414" stroke-linecap="round" stroke-linejoin="round"/>
<path d="M15.397 65.9909L17.6215 63.0884" stroke="#135D54" stroke-width="0.0445414" stroke-linecap="round" stroke-linejoin="round"/>
<path d="M16.9518 63.9596C16.9145 63.5547 16.9641 63.1465 17.0975 62.7623C17.2309 62.3782 17.4448 62.027 17.7251 61.7323C18.3078 61.0936 21.5381 59.3173 21.9836 60.4744C22.4598 61.7323 19.2688 64.6292 16.9518 63.9596Z" fill="#00C796" stroke="#135D54" stroke-width="0.0445414" stroke-linecap="round" stroke-linejoin="round"/>
<path d="M16.9462 63.9595L20.1317 61.4912" stroke="#135D54" stroke-width="0.0445414" stroke-linecap="round" stroke-linejoin="round"/>
<path d="M15.4922 54.6776L17.6747 52.9771" stroke="#135D54" stroke-width="0.0445414" stroke-linecap="round" stroke-linejoin="round"/>
<path d="M16.9518 53.652C16.9147 53.2475 16.9645 52.8398 17.0978 52.4561C17.2312 52.0725 17.4451 51.7218 17.7251 51.4275C18.3078 50.7859 21.5381 49.0125 21.9835 50.1696C22.4598 51.4275 19.2688 54.33 16.9518 53.652Z" fill="#00C796" stroke="#135D54" stroke-width="0.0445414" stroke-linecap="round" stroke-linejoin="round"/>
<path d="M16.9462 53.6525L20.1317 51.187" stroke="#135D54" stroke-width="0.0445414" stroke-linecap="round" stroke-linejoin="round"/>
<path d="M15.271 49.0837C15.2339 48.6789 15.2839 48.271 15.4178 47.8873C15.5517 47.5035 15.7662 47.153 16.047 46.8592C16.6298 46.2176 19.8601 44.4441 20.3055 45.6012C20.779 46.8592 17.5851 49.7616 15.271 49.0837Z" fill="#00C796" stroke="#135D54" stroke-width="0.0445414" stroke-linecap="round" stroke-linejoin="round"/>
<path d="M15.2626 49.0826L18.4508 46.6172" stroke="#135D54" stroke-width="0.0445414" stroke-linecap="round" stroke-linejoin="round"/>
<path d="M15.4193 49.2201C15.013 49.2145 14.6125 49.1221 14.2448 48.9491C13.8771 48.7761 13.5507 48.5265 13.2872 48.2171C12.7101 47.5699 11.2869 44.1716 12.4832 43.8494C13.7831 43.502 16.3354 46.9788 15.4193 49.2201Z" fill="#00C796" stroke="#135D54" stroke-width="0.0445414" stroke-linecap="round" stroke-linejoin="round"/>
<path d="M15.4194 49.2208L13.3014 45.7944" stroke="#135D54" stroke-width="0.0445414" stroke-linecap="round" stroke-linejoin="round"/>
<path d="M92.9159 106.141L88.5762 88.5659L55.0545 88.8041C53.3035 91.7542 49.5633 101.745 47.9496 106.141H92.9159Z" fill="#135D54" stroke="#135D54" stroke-width="0.0445414" stroke-linecap="round" stroke-linejoin="round"/>
<path d="M114.508 79.8311L117.074 80.2709C117.074 80.2709 122.353 79.9039 122.793 79.9039C123.232 79.9039 126.387 82.4702 126.387 82.4702L121.033 82.3974C121.033 82.3974 117.223 83.4956 115.903 83.4956C114.584 83.4956 112.97 81.9575 112.97 81.9575L114.508 79.8311Z" fill="#F0F3F3" stroke="#135D54" stroke-width="0.0445414" stroke-linecap="round" stroke-linejoin="round"/>
<path d="M115.536 81.5178C115.536 81.5178 120.299 81.6635 120.815 81.5906C121.33 81.5178 122.428 80.8566 122.428 81.5178C122.428 82.179 121.694 81.9577 121.028 82.3975C120.637 82.6597 120.22 82.8803 119.784 83.0559C119.784 83.0559 118.755 83.3501 117.876 83.4958C116.996 83.6414 116.778 83.5686 115.898 83.4958C115.373 83.4532 114.867 83.2766 114.43 82.9831" fill="#F0F3F3"/>
<path d="M115.536 81.5178C115.536 81.5178 120.299 81.6635 120.815 81.5906C121.33 81.5178 122.428 80.8566 122.428 81.5178C122.428 82.179 121.694 81.9577 121.028 82.3975C120.637 82.6597 120.22 82.8803 119.784 83.0559C119.784 83.0559 118.755 83.3501 117.876 83.4958C116.996 83.6414 116.778 83.5686 115.898 83.4958C115.373 83.4532 114.867 83.2766 114.43 82.9831" stroke="#135D54" stroke-width="0.0445414" stroke-linecap="round" stroke-linejoin="round"/>
<path d="M102.324 64.3798L98.6816 56.8378C98.6816 56.8378 98.8357 48.3796 98.6816 47.1497C98.5275 45.9198 98.3762 44.7655 95.992 44.0679C93.6078 43.3703 79.5352 44.5274 79.5352 44.5274C79.5352 44.5274 75.7866 44.8972 72.4695 45.4827C69.1523 46.0683 61.8232 46.1103 61.4478 47.2646C61.0724 48.4189 59.3466 74.7206 59.3466 74.7206L52.4658 90.2025C52.4658 90.2025 58.9095 95.5088 72.3042 94.7384C85.6988 93.9679 90.3832 89.8439 90.3832 89.8439L86.615 76.396C86.615 76.396 92.843 70.86 92.9971 69.1678C93.1512 67.4756 93.2268 66.1672 93.2268 66.1672C93.2268 66.1672 97.0735 72.0899 97.8411 72.5522C98.6088 73.0145 113.11 83.176 113.11 83.176L115.11 79.6375L102.842 65.4752L102.324 64.405" fill="#858585"/>
<path d="M102.324 64.3798L98.6816 56.8378C98.6816 56.8378 98.8357 48.3796 98.6816 47.1497C98.5275 45.9198 98.3762 44.7655 95.992 44.0679C93.6078 43.3703 79.5352 44.5274 79.5352 44.5274C79.5352 44.5274 75.7866 44.8972 72.4695 45.4827C69.1523 46.0683 61.8232 46.1103 61.4478 47.2646C61.0724 48.4189 59.3466 74.7206 59.3466 74.7206L52.4658 90.2025C52.4658 90.2025 58.9095 95.5088 72.3042 94.7384C85.6988 93.9679 90.3832 89.8439 90.3832 89.8439L86.615 76.396C86.615 76.396 92.843 70.86 92.9971 69.1678C93.1512 67.4756 93.2268 66.1672 93.2268 66.1672C93.2268 66.1672 97.0735 72.0899 97.8411 72.5522C98.6088 73.0145 113.11 83.176 113.11 83.176L115.11 79.6375L102.842 65.4752L102.324 64.405" stroke="#135D54" stroke-width="0.0445414" stroke-linecap="round" stroke-linejoin="round"/>
<path d="M93.2269 66.1421L94.5269 53.77" stroke="#135D54" stroke-width="0.0445414" stroke-linecap="round" stroke-linejoin="round"/>
<path d="M94.2046 57.7878C94.2046 57.7878 96.6168 55.6193 97.5806 52.8877" stroke="#135D54" stroke-width="0.0445414" stroke-linecap="round" stroke-linejoin="round"/>
<path d="M96.5973 58.4491C96.9905 58.3448 97.3732 58.2041 97.7404 58.0288" stroke="#135D54" stroke-width="0.0445414" stroke-linecap="round" stroke-linejoin="round"/>
<path d="M93.9635 59.074C93.9635 59.074 94.804 58.9115 95.7145 58.6846" stroke="#135D54" stroke-width="0.0445414" stroke-linecap="round" stroke-linejoin="round"/>
<path d="M76.3862 44.2279L73.6182 54.1485L76.6187 56.67L73.31 59.9003C73.31 59.9003 74.5399 64.7443 76.3106 68.5125C78.0812 72.2807 79.2327 73.9869 79.2327 73.9869C79.2327 73.9869 86.3853 70.6025 88.2287 67.6048C90.0722 64.607 92.5349 59.9143 92.5349 59.9143L90.3832 57.7626L93.535 56.0816C93.535 56.0816 92.4984 51.6438 91.8541 48.8534C91.4868 47.2265 90.9223 45.6506 90.1731 44.1606L76.3862 44.2279Z" fill="#00C796" stroke="#135D54" stroke-width="0.0445414" stroke-linecap="round" stroke-linejoin="round"/>
<path d="M78.6947 45.5107C78.6947 45.5107 78.6275 54.3695 78.3641 57.4794C78.1008 60.5892 78.3641 65.2147 78.762 67.1982C79.1598 69.1818 79.9527 72.16 79.9527 72.16C79.9527 72.16 85.3738 67.7278 86.1023 65.8759C86.8307 64.024 88.1503 56.6865 88.1503 56.6865L89.341 48.2199L78.6947 45.5107Z" fill="#F0F3F3" stroke="#135D54" stroke-width="0.0445414" stroke-linecap="round" stroke-linejoin="round"/>
<path d="M78.958 43.9224L78.3641 56.356L83.6536 52.9156L88.0858 57.8101L89.2092 47.6261L78.958 43.9224Z" fill="#F0F3F3" stroke="#135D54" stroke-width="0.0445414" stroke-linecap="round" stroke-linejoin="round"/>
<path d="M80.8771 48.1558L83.0708 58.2052L87.1051 50.0076C87.1051 50.0076 82.3255 49.8171 80.8771 48.1558Z" fill="#F0F3F3" stroke="#135D54" stroke-width="0.0445414" stroke-linecap="round" stroke-linejoin="round"/>
<path d="M76.445 37.8682C75.7526 36.7785 75.1331 35.6441 74.5903 34.4726C73.8843 32.8729 74.0132 32.2313 74.7164 30.5672C75.4196 28.903 78.3025 24.101 80.2244 23.2661C81.34 22.7728 82.5304 22.4697 83.7461 22.3696C83.7461 22.3696 90.8538 22.179 94.1122 25.6363C97.3705 29.0935 97.4405 34.9853 96.6729 36.5234C96.1086 37.6633 95.1198 38.5364 93.9188 38.9553C93.2801 39.1486 92.773 39.3279 92.773 39.3279C92.773 39.3279 91.9997 39.3279 91.487 39.3279C90.9743 39.3279 88.2847 37.7926 85.9146 35.8062C84.8188 34.9297 83.7713 33.9945 82.7767 33.0046C82.7767 33.0046 80.0227 34.9881 79.0646 35.8847C78.1064 36.7812 77.8458 37.3583 77.8458 37.3583L77.4732 38.8012L76.445 37.8682Z" fill="#135D54" stroke="#135D54" stroke-width="0.0445414" stroke-linecap="round" stroke-linejoin="round"/>
<path d="M76.3834 39.1484C76.3834 39.1484 74.0133 38.7645 72.6685 40.0449C71.3237 41.3252 71.1948 44.5275 72.4752 45.4885C73.7555 46.4494 76.6776 47.3011 78.0476 46.8893C79.4176 46.4774 79.8407 45.1579 79.8407 43.8075C79.8407 42.4571 78.4959 39.7731 78.2381 39.2632C77.9804 38.7533 76.3834 39.1484 76.3834 39.1484Z" fill="#135D54" stroke="#135D54" stroke-width="0.0445414" stroke-linecap="round" stroke-linejoin="round"/>
<path d="M77.4815 38.7981C77.4815 38.7981 76.3328 36.9406 75.4475 38.5179C74.5622 40.0952 75.8901 41.6137 76.8483 42.1432C77.3156 42.4245 77.8229 42.6333 78.3528 42.7624L77.4815 38.7981Z" fill="#F0F3F3" stroke="#135D54" stroke-width="0.0445414" stroke-linecap="round" stroke-linejoin="round"/>
<path d="M92.7813 39.3277C92.7813 39.3277 94.4623 38.3555 94.6388 39.7703C94.8153 41.1851 93.577 42.6 92.9578 43.0426C92.3387 43.4853 91.896 43.8383 91.896 43.8383L92.7813 39.3277Z" fill="#F0F3F3" stroke="#135D54" stroke-width="0.0445414" stroke-linecap="round" stroke-linejoin="round"/>
<path d="M77.3051 36.2321C77.3051 36.2321 78.3669 44.7379 79.4288 46.4917C80.4906 48.2455 82.4377 51.3554 84.9144 51.3554C87.391 51.3554 90.131 48.6154 91.1928 46.0491C92.2547 43.4828 92.7842 39.3251 92.7842 39.3251C92.7842 39.3251 88.6265 37.6441 85.3542 34.2822C82.0819 30.9202 82.8804 30.4775 82.8804 30.4775C82.8804 30.4775 79.0729 35.4364 77.3051 36.2321Z" fill="#F0F3F3" stroke="#135D54" stroke-width="0.0445414" stroke-linecap="round" stroke-linejoin="round"/>
<path d="M84.001 44.0146C84.001 44.0146 85.6036 45.295 87.0128 44.1435" stroke="#135D54" stroke-width="0.0445414" stroke-linecap="round" stroke-linejoin="round"/>
<path d="M83.0428 45.8725C83.0428 45.8725 85.2197 47.985 88.0354 45.8081" stroke="#135D54" stroke-width="0.0445414" stroke-linecap="round" stroke-linejoin="round"/>
<path d="M82.6646 39.8322C82.6402 39.9544 82.5816 40.0672 82.4957 40.1574C82.4097 40.2477 82.2999 40.3117 82.179 40.342C82.0581 40.3722 81.9311 40.3676 81.8127 40.3286C81.6944 40.2895 81.5895 40.2177 81.5104 40.1214C81.4312 40.0251 81.381 39.9084 81.3656 39.7847C81.3502 39.661 81.3703 39.5355 81.4234 39.4228C81.4765 39.31 81.5605 39.2146 81.6657 39.1478C81.7708 39.0809 81.8928 39.0452 82.0174 39.0449C82.2068 39.0655 82.3807 39.1594 82.5016 39.3065C82.6226 39.4537 82.6811 39.6424 82.6646 39.8322Z" fill="#135D54"/>
<path d="M89.2625 40.2355C89.2386 40.3585 89.1802 40.4722 89.0941 40.5634C89.0081 40.6545 88.8979 40.7193 88.7764 40.7502C88.655 40.7811 88.5272 40.7769 88.4081 40.7379C88.2889 40.699 88.1833 40.627 88.1035 40.5304C88.0237 40.4337 87.9731 40.3164 87.9574 40.192C87.9417 40.0677 87.9617 39.9415 88.0151 39.828C88.0684 39.7146 88.1529 39.6187 88.2587 39.5515C88.3644 39.4842 88.4871 39.4484 88.6125 39.4482C88.8021 39.4688 88.9762 39.5626 89.0976 39.7097C89.219 39.8567 89.2782 40.0454 89.2625 40.2355Z" fill="#135D54"/>
<path d="M80.5495 37.4842C80.5495 37.4842 81.7654 36.7137 83.7518 37.3553" stroke="#135D54" stroke-width="0.0445414" stroke-linecap="round" stroke-linejoin="round"/>
<path d="M87.6514 37.8037C87.6514 37.8037 88.5479 36.9072 91.3664 38.7647" stroke="#135D54" stroke-width="0.0445414" stroke-linecap="round" stroke-linejoin="round"/>
<path d="M84.1214 38.1609L80.6131 37.9734C79.975 37.9393 79.43 38.4289 79.3959 39.0671L79.3212 40.4659C79.287 41.104 79.7767 41.649 80.4148 41.6831L83.9231 41.8706C84.5612 41.9047 85.1062 41.4151 85.1403 40.777L85.215 39.3781C85.2492 38.74 84.7595 38.195 84.1214 38.1609Z" stroke="#135D54" stroke-width="0.0445414" stroke-linecap="round" stroke-linejoin="round"/>
<path d="M91.441 38.296L87.9277 38.1204C87.2887 38.0884 86.7447 38.5805 86.7128 39.2196L86.6427 40.6204C86.6108 41.2594 87.1029 41.8034 87.742 41.8353L91.2552 42.011C91.8942 42.0429 92.4382 41.5508 92.4701 40.9118L92.5402 39.5109C92.5721 38.8719 92.08 38.328 91.441 38.296Z" stroke="#135D54" stroke-width="0.044597" stroke-linecap="round" stroke-linejoin="round"/>
<path d="M85.2086 39.0669L86.4806 39.1509" stroke="#135D54" stroke-width="0.0445414" stroke-linecap="round" stroke-linejoin="round"/>
<path d="M79.4006 39.0282L77.403 38.4175" stroke="#135D54" stroke-width="0.0445414" stroke-linecap="round" stroke-linejoin="round"/>
<path d="M92.2071 39.7591L92.7814 39.3276" stroke="#135D54" stroke-width="0.0445414" stroke-linecap="round" stroke-linejoin="round"/>
<path d="M48.7844 62.5479L48.0168 60.3065C48.0168 60.3065 47.4004 58.1549 46.7084 57.2247C46.0164 56.2946 44.7109 55.9948 44.1701 55.3028C43.6294 54.6108 42.9402 52.6889 42.4892 52.151C42.0381 51.613 41.1052 52.0725 41.3349 53.3024C41.5646 54.5324 42.1025 54.919 42.3351 55.3813C42.5676 55.8435 43.1027 57.0622 43.1027 57.0622C43.1027 57.0622 38.1046 56.2217 37.7964 56.1405C37.4882 56.0592 36.5665 55.0647 36.3368 54.4595C36.107 53.8544 36.1827 51.3777 35.2581 52.1538C34.3336 52.9298 34.8743 54.538 35.0284 54.9218C35.1825 55.3056 35.0284 58.0036 35.4122 59.382C35.796 60.7604 37.0932 62.15 39.0263 63.0718C40.9595 63.9935 44.7193 64.3045 44.7193 64.3045L46.1789 65.7641L48.7844 62.5479Z" fill="#F0F3F3" stroke="#135D54" stroke-width="0.0445414" stroke-linecap="round" stroke-linejoin="round"/>
<path d="M34.482 58.7798C34.482 58.7798 33.4818 56.9812 33.4818 55.6644C33.4818 54.3476 33.5715 53.1205 34.2551 53.4399C34.9387 53.7593 34.8154 53.72 35.0087 54.9388C35.1675 55.8745 35.4326 56.7891 35.7988 57.6648C35.8912 57.802 36.6168 59.6259 35.9809 59.6651C35.3449 59.7043 34.482 58.7798 34.482 58.7798Z" fill="#F0F3F3" stroke="#135D54" stroke-width="0.0445414" stroke-linecap="round" stroke-linejoin="round"/>
<path d="M36.5636 58.7794C36.5636 58.7794 35.1796 54.8572 34.4876 55.5492C33.7956 56.2412 33.8713 57.0873 34.4876 58.7794C35.104 60.4716 36.4096 61.78 37.4854 61.9341L38.564 62.0882L36.5636 58.7794Z" fill="#F0F3F3" stroke="#135D54" stroke-width="0.0445414" stroke-linecap="round" stroke-linejoin="round"/>
<path d="M45.0162 61.7801C45.0162 61.7801 43.3353 60.3961 42.2482 60.3961C41.1612 60.3961 38.6341 60.7799 38.6341 60.7799C38.6341 60.7799 36.8663 54.8573 36.3284 55.8574C35.7904 56.8576 35.9417 57.8578 36.4825 59.3959C37.0232 60.934 37.788 62.318 39.0039 63.0857C40.2198 63.8533 44.6969 64.3184 44.6969 64.3184" fill="#F0F3F3"/>
<path d="M45.0162 61.7801C45.0162 61.7801 43.3353 60.3961 42.2482 60.3961C41.1612 60.3961 38.6341 60.7799 38.6341 60.7799C38.6341 60.7799 36.8663 54.8573 36.3284 55.8574C35.7904 56.8576 35.9417 57.8578 36.4825 59.3959C37.0232 60.934 37.788 62.318 39.0039 63.0857C40.2198 63.8533 44.6969 64.3184 44.6969 64.3184" stroke="#135D54" stroke-width="0.0445414" stroke-linecap="round" stroke-linejoin="round"/>
<path d="M50.5551 63.6266L48.7844 61.856L44.8649 65.6242L46.7869 67.1623L50.5551 63.6266Z" fill="#F0F3F3" stroke="#135D54" stroke-width="0.0445414" stroke-linecap="round" stroke-linejoin="round"/>
<path d="M68.3455 45.9785C68.3455 45.9785 62.8571 46.169 61.5515 46.7826C60.246 47.3961 60.0891 48.3207 60.0134 48.7073C59.9378 49.0939 57.6292 69.6244 57.6292 69.6244L50.0928 62.4718L45.2488 67.1505C45.2488 67.1505 51.9391 75.9168 53.4772 78.301C55.0153 80.6852 56.3993 82.9153 57.7049 83.1451C59.0104 83.3748 59.4755 83.4533 61.0893 82.9938C62.703 82.5343 64.7818 78.9398 64.8603 78.6372C64.9387 78.3347 68.3987 58.9389 68.3987 58.9389" fill="#858585"/>
<path d="M68.3455 45.9785C68.3455 45.9785 62.8571 46.169 61.5515 46.7826C60.246 47.3961 60.0891 48.3207 60.0134 48.7073C59.9378 49.0939 57.6292 69.6244 57.6292 69.6244L50.0928 62.4718L45.2488 67.1505C45.2488 67.1505 51.9391 75.9168 53.4772 78.301C55.0153 80.6852 56.3993 82.9153 57.7049 83.1451C59.0104 83.3748 59.4755 83.4533 61.0893 82.9938C62.703 82.5343 64.7818 78.9398 64.8603 78.6372C64.9387 78.3347 68.3987 58.9389 68.3987 58.9389" stroke="#135D54" stroke-width="0.0445414" stroke-linecap="round" stroke-linejoin="round"/>
<path d="M61.5151 71.8745L62.5405 72.4685" stroke="#135D54" stroke-width="0.0445414" stroke-linecap="round" stroke-linejoin="round"/>
<path d="M57.6292 69.6245L60.8847 71.51" stroke="#135D54" stroke-width="0.0445414" stroke-linecap="round" stroke-linejoin="round"/>
<path d="M70.0965 79.7969C69.4773 80.0546 68.9058 80.2788 68.4155 80.4553" stroke="#135D54" stroke-width="0.0445414" stroke-linecap="round" stroke-linejoin="round"/>
<path d="M81.4178 74.6118C81.4178 74.6118 76.2236 77.1333 71.9903 78.9908" stroke="#135D54" stroke-width="0.0445414" stroke-linecap="round" stroke-linejoin="round"/>
<path d="M84.0429 74.9702L77.4814 78.4274" stroke="#135D54" stroke-width="0.0445414" stroke-linecap="round" stroke-linejoin="round"/>
<path d="M138.316 81.5371H146.895C146.895 81.5371 148.136 81.5371 147.685 83.4563C147.234 85.3754 145.427 95.8703 145.2 99.8206C144.973 103.771 144.749 106.141 144.749 106.141H111.463L115.477 82.9968C115.554 82.5572 115.784 82.159 116.126 81.8724C116.468 81.5858 116.9 81.4293 117.346 81.4307L138.316 81.5371Z" fill="#135D54" stroke="#135D54" stroke-width="0.0445414" stroke-linecap="round" stroke-linejoin="round"/>
<path d="M111.51 66.509C111.51 66.509 101.766 69.2378 101.609 70.1735C101.452 71.1093 97.3228 93.951 97.3228 93.951C97.3228 93.951 76.9073 88.6503 75.7278 88.6503C74.5483 88.6503 70.0348 92.469 69.4129 92.9368C68.7909 93.4047 67.9308 93.7969 67.8524 94.7299C67.7739 95.6628 66.9951 97.1477 67.8524 97.8481C68.7097 98.5485 69.2532 99.1761 69.567 98.7839C69.8808 98.3916 69.4913 97.0693 69.4129 96.8227C69.3344 96.5762 74.3242 94.0211 74.3242 94.0211L76.3497 93.5532C75.6267 94.1983 74.8433 94.7725 74.0104 95.2678C72.6852 96.0467 72.2201 97.3746 72.9205 97.4503C73.6209 97.5259 73.6994 97.2178 75.7222 96.593C77.745 95.9682 79.4624 93.9426 79.4624 93.9426C79.4624 93.9426 99.1859 103.143 100.279 103.143C101.371 103.143 101.214 103.376 102.15 102.129C103.086 100.882 106.126 91.9955 106.126 91.9955L107.294 103.533V106.107H137.938C137.938 106.107 137.781 72.8939 137.627 72.426C137.473 71.9582 125.507 64.4189 125.507 64.4189L111.51 66.509Z" fill="#00C796" stroke="#135D54" stroke-width="0.0445414" stroke-linecap="round" stroke-linejoin="round"/>
<path d="M103.24 88.3032L102.565 87.4375" stroke="#135D54" stroke-width="0.0445414" stroke-linecap="round" stroke-linejoin="round"/>
<path d="M106.131 92.0043L103.834 89.0654" stroke="#135D54" stroke-width="0.0445414" stroke-linecap="round" stroke-linejoin="round"/>
<path d="M103.189 82.4872L102.836 81.3525" stroke="#135D54" stroke-width="0.0445414" stroke-linecap="round" stroke-linejoin="round"/>
<path d="M104.571 81.5371L106.131 92.0012L103.554 83.6692" stroke="#135D54" stroke-width="0.0445414" stroke-linecap="round" stroke-linejoin="round"/>
<path d="M127.976 65.9939L125.507 64.4277L111.499 66.5094L118.047 80.6212L127.976 65.9939Z" fill="#F0F3F3" stroke="#135D54" stroke-width="0.0445414" stroke-linecap="round" stroke-linejoin="round"/>
<path d="M110.807 45.6794C108.944 46.9625 106.288 49.7698 106.885 51.5628C107.512 53.4455 108.454 53.863 108.454 53.863C108.454 53.863 107.613 56.4769 108.35 57.3146C108.787 57.8145 109.14 58.3823 109.395 58.9956C109.395 58.9956 107.826 63.3886 108.555 63.9125L109.286 64.4336C109.286 64.4336 110.541 69.4541 111.482 69.7567C112.424 70.0593 115.248 69.2328 115.248 69.2328L118.091 76.8729L125.518 64.428L124.784 61.9065C124.784 61.9065 129.177 54.6923 127.401 49.5793C126.379 46.6348 123.728 44.6008 120.803 43.7463C117.573 42.8049 114.783 43.8415 111.779 45.1275C111.438 45.2797 111.113 45.4645 110.807 45.6794Z" fill="#C2C2C2" stroke="#135D54" stroke-width="0.0445414" stroke-linecap="round" stroke-linejoin="round"/>
<path d="M127.39 49.5793C126.367 46.6348 123.717 44.6008 120.792 43.7463C117.562 42.8049 114.771 43.8415 111.768 45.1275C111.433 45.2833 111.113 45.471 110.813 45.6878C108.95 46.971 106.294 49.7782 106.89 51.5712C107.518 53.4539 108.459 53.8714 108.459 53.8714C108.786 53.9101 109.118 53.8756 109.43 53.7705C109.742 53.6653 110.027 53.4921 110.264 53.2634C111.043 52.4846 113.065 51.081 114.707 51.3023C116.349 51.5236 116.343 53.4848 115.797 54.4205C115.251 55.3563 115.096 56.4489 116.5 56.7599C117.904 57.0709 118.293 57.0709 118.293 58.1607C118.293 59.2505 118.215 60.1218 119.072 59.9538C119.929 59.7857 120.008 59.4074 120.397 58.5529C120.787 57.6984 122.501 56.3705 123.437 59.0208C124.373 61.6712 122.501 62.9179 122.501 62.9179C123.318 62.6238 124.104 62.2484 124.846 61.7972C125.404 60.8391 129.032 54.3169 127.39 49.5793Z" fill="#135D54" stroke="#135D54" stroke-width="0.0445414" stroke-linecap="round" stroke-linejoin="round"/>
<path d="M110.339 58.5582C110.339 58.5582 112.6 57.544 114.082 58.5582" stroke="#135D54" stroke-width="0.0445414" stroke-linecap="round" stroke-linejoin="round"/>
<path d="M110.264 65.5738C110.264 65.5738 112.679 66.5095 114.239 64.7949" stroke="#135D54" stroke-width="0.0445414" stroke-linecap="round" stroke-linejoin="round"/>
<path d="M109.297 64.4277L110.575 64.6407" stroke="#135D54" stroke-width="0.0445414" stroke-linecap="round" stroke-linejoin="round"/>
<path d="M113.146 60.3289C113.146 60.7687 112.903 61.1273 112.586 61.1273C112.27 61.1273 112.04 60.7687 112.04 60.3289C112.04 59.889 112.284 59.5332 112.586 59.5332C112.889 59.5332 113.146 59.889 113.146 60.3289Z" fill="#135D54"/>
<path d="M115.259 69.2379C115.259 69.2379 118.06 68.1481 118.839 67.6018C119.618 67.0554 120.086 66.666 120.086 66.666L116.265 71.7342L115.259 69.2379Z" fill="#135D54"/>
<path d="M82.6422 90.2221C79.0729 89.3396 76.148 88.6504 75.7278 88.6504C74.5567 88.6504 70.0349 92.469 69.4129 92.9369C68.7909 93.4048 67.9308 93.797 67.8524 94.73C67.7739 95.6629 66.9951 97.1478 67.8524 97.8482C68.7097 98.5486 69.2532 99.1762 69.567 98.7839C69.8808 98.3917 69.4913 97.0693 69.4129 96.8228C69.3344 96.5762 74.3242 94.0211 74.3242 94.0211L76.3497 93.5533C75.6267 94.1984 74.8433 94.7726 74.0104 95.2679C72.6852 96.0467 72.2201 97.3747 72.9205 97.4503C73.6209 97.526 73.6994 97.2178 75.7222 96.593C77.745 95.9683 79.4624 93.9427 79.4624 93.9427C79.4624 93.9427 80.3729 94.3685 81.8101 95.0325C82.2643 94.3275 82.5721 93.5383 82.715 92.7119C82.858 91.8855 82.8332 91.0388 82.6422 90.2221Z" fill="#C2C2C2" stroke="#135D54" stroke-width="0.0445414" stroke-linecap="round" stroke-linejoin="round"/>
<path d="M79.4678 93.9514L80.3251 91.9258" stroke="#135D54" stroke-width="0.0445414" stroke-linecap="round" stroke-linejoin="round"/>
<path d="M71.828 93.0942C71.828 93.0942 68.0093 95.5121 67.3061 95.9799C66.6029 96.4478 64.1879 96.9913 64.4232 97.4592C64.6586 97.9271 65.2021 98.1624 66.2947 97.8486C67.5415 97.5435 68.7659 97.1532 69.9593 96.6803C71.206 96.134 74.3242 94.03 74.3242 94.03" fill="#C2C2C2"/>
<path d="M71.828 93.0942C71.828 93.0942 68.0093 95.5121 67.3061 95.9799C66.6029 96.4478 64.1879 96.9913 64.4232 97.4592C64.6586 97.9271 65.2021 98.1624 66.2947 97.8486C67.5415 97.5435 68.7659 97.1532 69.9593 96.6803C71.206 96.134 74.3242 94.03 74.3242 94.03" stroke="#135D54" stroke-width="0.0445414" stroke-linecap="round" stroke-linejoin="round"/>
<path d="M134.041 69.9521C134.041 69.9521 139.342 72.2915 140.042 73.6167C140.742 74.9419 142.149 103.874 142.225 104.715C142.252 105.014 142.162 105.311 141.973 105.544C141.784 105.777 141.511 105.927 141.213 105.962C140.824 106.04 115.954 105.886 115.253 105.886C114.553 105.886 112.835 105.729 111.821 105.261C110.807 104.793 110.028 104.95 109.95 103.701C109.924 102.791 109.951 101.881 110.028 100.975C110.028 100.507 109.717 99.1817 110.028 98.4C110.339 97.6184 110.964 97.6212 111.275 97.5427C111.768 97.5025 112.264 97.5025 112.757 97.5427C113.031 97.3287 113.359 97.1939 113.705 97.153C114.051 97.112 114.401 97.1663 114.718 97.3102C115.886 97.778 117.836 100.582 117.836 100.582C117.836 100.582 119.708 101.129 122.669 100.661C125.63 100.193 132.335 98.7894 132.335 98.7894L129.684 82.1841" fill="#00C796"/>
<path d="M134.041 69.9521C134.041 69.9521 139.342 72.2915 140.042 73.6167C140.742 74.9419 142.149 103.874 142.225 104.715C142.252 105.014 142.162 105.311 141.973 105.544C141.784 105.777 141.511 105.927 141.213 105.962C140.824 106.04 115.954 105.886 115.253 105.886C114.553 105.886 112.835 105.729 111.821 105.261C110.807 104.793 110.028 104.95 109.95 103.701C109.924 102.791 109.951 101.881 110.028 100.975C110.028 100.507 109.717 99.1817 110.028 98.4C110.339 97.6184 110.964 97.6212 111.275 97.5427C111.768 97.5025 112.264 97.5025 112.757 97.5427C113.031 97.3287 113.359 97.1939 113.705 97.153C114.051 97.112 114.401 97.1663 114.718 97.3102C115.886 97.778 117.836 100.582 117.836 100.582C117.836 100.582 119.708 101.129 122.669 100.661C125.63 100.193 132.335 98.7894 132.335 98.7894L129.684 82.1841" stroke="#135D54" stroke-width="0.0445414" stroke-linecap="round" stroke-linejoin="round"/>
<path d="M132.324 98.7842L132.716 101.591" stroke="#135D54" stroke-width="0.0445414" stroke-linecap="round" stroke-linejoin="round"/>
<path d="M119.615 105.903C118.797 103.194 119.45 101.645 120.097 100.843C119.332 100.847 118.569 100.757 117.825 100.577C117.825 100.577 115.864 97.7754 114.707 97.3048C114.39 97.1609 114.04 97.1066 113.694 97.1476C113.348 97.1885 113.02 97.3233 112.746 97.5373C112.253 97.4971 111.757 97.4971 111.264 97.5373C110.953 97.6157 110.328 97.6157 110.017 98.3946C109.706 99.1735 110.017 100.501 110.017 100.969C109.939 101.876 109.913 102.786 109.939 103.695C110.017 104.945 110.796 104.788 111.81 105.256C112.824 105.724 114.539 105.881 115.242 105.881L119.615 105.903Z" fill="#C2C2C2" stroke="#135D54" stroke-width="0.0445414" stroke-linecap="round" stroke-linejoin="round"/>
<path d="M73.1529 104.667H40.2897L34.636 81.4248H67.4964L73.1529 104.667Z" fill="#F0F3F3" stroke="#135D54" stroke-width="0.0445414" stroke-linecap="round" stroke-linejoin="round"/>
<path d="M57.8141 93.4865C57.8141 94.2065 55.6904 94.7892 53.0737 94.7892C50.4569 94.7892 48.3305 94.2121 48.3305 93.4865C48.3305 92.7609 50.4513 92.1865 53.0709 92.1865C55.6904 92.1865 57.8141 92.7749 57.8141 93.4865Z" fill="#F0F3F3" stroke="#135D54" stroke-width="0.0445414" stroke-linecap="round" stroke-linejoin="round"/>
<path d="M94.1289 104.667H40.2897V106.141H94.1289V104.667Z" fill="#C2C2C2" stroke="#135D54" stroke-width="0.0445414" stroke-linecap="round" stroke-linejoin="round"/>
<path d="M94.1288 104.667H73.6124V106.141H94.1288V104.667Z" fill="#F0F3F3" stroke="#135D54" stroke-width="0.0445414" stroke-linecap="round" stroke-linejoin="round"/>
<path d="M76.9802 105.088H75.2039V105.41H76.9802V105.088Z" fill="#F0F3F3" stroke="#135D54" stroke-width="0.0445414" stroke-linecap="round" stroke-linejoin="round"/>
<path d="M81.4992 105.088H79.723V105.41H81.4992V105.088Z" fill="#F0F3F3" stroke="#135D54" stroke-width="0.0445414" stroke-linecap="round" stroke-linejoin="round"/>
<path d="M166.826 106.141H2.48138" stroke="#135D54" stroke-width="0.0445414" stroke-linecap="round" stroke-linejoin="round"/>
</svg>
