<svg width="88" height="86" viewBox="0 0 88 86" fill="none" xmlns="http://www.w3.org/2000/svg">
<rect width="87.5576" height="86" rx="24.9275" fill="#C1FFF0"/>
<path d="M56.3398 35.3347H36.2422V30.2246C36.2422 28.1805 36.9958 26.392 38.5031 24.8589C41.5178 21.7928 46.291 21.7928 49.0544 24.8589C50.0593 25.881 50.5617 27.1585 51.0642 28.436C51.3154 29.7136 52.8227 30.4801 54.0788 30.2246C55.3349 29.9691 56.3398 28.436 55.8373 27.1585C55.3349 24.8589 54.0788 22.8149 52.5715 21.2818C50.3105 18.7268 47.0446 17.4492 43.7788 17.4492C36.7446 17.4492 31.2178 23.0704 31.2178 30.2246V35.3347C26.947 35.3347 23.6812 38.6563 23.6812 42.9999V60.8854C23.6812 65.2291 26.947 68.5507 31.2178 68.5507H56.3398C60.6105 68.5507 63.8764 65.2291 63.8764 60.8854V42.9999C63.8764 38.6563 60.6105 35.3347 56.3398 35.3347Z" fill="#135D54"/>
</svg>
