<svg width="270" height="78" viewBox="0 0 270 78" fill="none" xmlns="http://www.w3.org/2000/svg">
<path fill-rule="evenodd" clip-rule="evenodd" d="M8.02769 68.3884C-0.102015 64.2958 -1.27278 56.0702 1.0637 48.0364C0.463177 47.4964 0.0846976 46.7143 0.0846976 45.8463C0.0846976 44.2163 1.40685 42.8992 3.03178 42.8992C3.82406 41.2289 4.74755 39.609 5.76187 38.09C13.2305 26.8972 26.1997 17.8995 38.6289 12.4141L37.3421 14.8212C26.3813 20.1098 14.4416 29.3143 7.71481 39.397C6.75095 40.8403 5.89812 42.329 5.18658 43.8378C5.67608 44.3627 5.97886 45.0691 5.97886 45.8463C5.97886 47.345 4.86361 48.5814 3.41531 48.7681C1.90139 55.0357 3.46072 61.0207 10.4752 64.4421L8.02769 68.3884Z" fill="#0AC593"/>
<path fill-rule="evenodd" clip-rule="evenodd" d="M74.2766 54.8137L86.8471 77.7293H66.9442L59.3545 63.8921C51.4468 67.5305 42.6409 69.9175 33.4464 70.3111L35.4599 65.7542C68.6045 62.7112 113.865 17.9701 74.0596 8.41731C73.2976 11.2685 70.6937 13.3729 67.6003 13.3729C63.9063 13.3729 60.9088 10.3804 60.9088 6.68644C60.9088 2.9925 63.9063 0 67.6003 0C71.0873 0 73.9486 2.66955 74.2615 6.0708C103.677 11.0011 96.5261 37.4088 74.2766 54.8137Z" fill="#0AC593"/>
<path fill-rule="evenodd" clip-rule="evenodd" d="M69.0688 45.4224C64.5271 49.0609 59.5362 52.2249 54.3435 54.8591L50.9322 48.6016C48.8783 44.832 43.4534 44.8522 41.4298 48.637L25.8668 77.7293H5.96393L41.7326 11.748L42.3079 10.6832C43.1557 9.50741 44.5334 8.74536 46.0927 8.74536C47.6722 8.74536 49.07 9.53263 49.9128 10.7387L50.3972 11.6218L69.0688 45.4224Z" fill="#007970"/>
<path d="M129.59 56.5396H115.369L113.199 61.263H102.834V59.9055L120.259 22.8904H124.816L142.074 59.9055V61.263H131.815L129.59 56.5396ZM122.479 39.064L118.573 48.2383H126.446L122.479 39.064Z" fill="#007970"/>
<path d="M162.482 57.9525V57.6245C161.105 60.4454 158.753 61.8938 155.427 61.9644C151.557 62.0351 148.499 60.7684 146.253 58.1645C144.007 55.5606 142.887 52.2501 142.887 48.2332C142.887 44.3626 144.134 41.0977 146.632 38.4382C149.13 35.7788 152.132 34.4465 155.639 34.4465C157.305 34.4465 158.985 34.7896 160.686 35.476V21.6338H169.91V53.1686C169.91 53.7842 169.91 54.1627 169.91 54.309C169.91 54.4554 169.946 54.7077 170.021 55.0711C170.092 55.4344 170.203 55.6615 170.35 55.7472C170.496 55.8381 170.713 55.9289 171 56.0198C171.288 56.1106 171.651 56.156 172.085 56.156V61.2579C171.036 61.5102 170.032 61.6818 169.073 61.7727C168.114 61.8635 167.11 61.8432 166.06 61.7171C165.01 61.5909 164.163 61.2125 163.507 60.5767C162.866 59.9509 162.518 59.0728 162.482 57.9525ZM160.908 49.2122V43.4038C159.676 42.8588 158.501 42.5914 157.38 42.5914C155.897 42.6267 154.696 43.1414 153.772 44.1406C152.849 45.1347 152.389 46.5023 152.389 48.2382C152.389 49.9389 152.758 51.2964 153.505 52.3107C154.247 53.325 155.397 53.8297 156.951 53.8297C158.183 53.8297 159.152 53.3755 159.853 52.4722C160.554 51.5638 160.908 50.4789 160.908 49.2122Z" fill="#007970"/>
<path d="M187.067 38.5745C187.572 37.2019 188.48 36.1422 189.782 35.4004C191.084 34.6586 192.532 34.2851 194.122 34.2851C196.186 34.2144 197.957 34.7393 199.441 35.8596L197.594 43.3484C196.256 42.4098 194.753 41.9758 193.087 42.0464C191.422 42.1171 190.049 42.6823 188.964 43.7269C187.879 44.7765 187.334 46.24 187.334 48.1223V61.258H178.271V43.0204C178.271 42.2231 178.236 41.6528 178.16 41.3097C178.09 40.9665 177.878 40.6688 177.534 40.4165C177.191 40.1641 176.656 40.038 175.935 40.038V34.9916C176.984 34.7393 178.059 34.5677 179.164 34.4769C180.27 34.386 181.425 34.4163 182.636 34.5576C183.847 34.704 184.862 35.1077 185.674 35.7789C186.502 36.45 186.961 37.3836 187.067 38.5745Z" fill="#007970"/>
<path d="M224.658 37.9236C227.428 40.3459 228.811 43.732 228.811 48.0719C228.811 52.4118 227.443 55.7877 224.713 58.1949C221.983 60.602 218.733 61.8232 214.969 61.8585C212.547 61.8939 210.291 61.4145 208.212 60.4203C206.133 59.4262 204.402 57.8517 203.029 55.6969C201.651 53.5421 200.965 51.0038 200.965 48.0719C200.965 43.732 202.333 40.3459 205.063 37.9236C207.793 35.5014 211.043 34.2852 214.807 34.2852C218.602 34.2852 221.887 35.5014 224.658 37.9236ZM211.603 43.838C210.659 44.8523 210.19 46.2602 210.19 48.0719C210.19 49.8835 210.659 51.2915 211.603 52.3058C212.541 53.3201 213.667 53.8096 214.969 53.7692C216.235 53.7339 217.33 53.2192 218.254 52.22C219.177 51.2258 219.637 49.8432 219.637 48.0668C219.637 46.2956 219.177 44.9078 218.254 43.9137C217.33 42.9195 216.235 42.4048 214.969 42.3644C213.667 42.3392 212.541 42.8287 211.603 43.838Z" fill="#007970"/>
<path d="M234.725 32.0091C233.64 31.0705 233.095 29.7635 233.095 28.1033C233.095 26.438 233.63 25.1461 234.695 24.2226C235.76 23.2991 237.036 22.8551 238.52 22.8904C239.968 22.9257 241.205 23.4001 242.239 24.3034C243.269 25.2067 243.789 26.4733 243.789 28.1033C243.789 29.7332 243.274 31.005 242.239 31.9284C241.21 32.8519 239.968 33.3313 238.52 33.3667C237.077 33.402 235.81 32.9478 234.725 32.0091ZM243.027 35.4811V61.263H233.802L233.857 35.4811H243.027Z" fill="#007970"/>
<path d="M260.83 27.0132V35.1025H268.809V41.6174H260.83V50.7362C260.83 52.2198 261.32 53.2896 262.294 53.9406C263.273 54.5916 264.358 54.8843 265.549 54.8086C266.745 54.7379 267.971 54.4654 269.238 53.9961L270 60.8895C267.648 61.5405 265.422 61.8836 263.323 61.9189C261.224 61.9542 259.286 61.6565 257.515 61.0257C255.744 60.3949 254.341 59.2191 253.306 57.4983C252.277 55.7825 251.757 53.5974 251.757 50.9582V41.6224L247.145 41.0269V35.1126H251.757L252.786 27.0232H260.83V27.0132Z" fill="#007970"/>
</svg>
